# xmcd
#
# Track frame offsets: 
#        150
#        47610
#        84238
#        105308
#        142513
#        162113
#        182066
#        201498
#        227611
#
# Disc length: 3285 seconds
#
# Revision: 0
# Processed by: cddbd v1.5.2PL0 Copyright (c) Steve Scherf et al.
# Submitted via: ExactAudioCopy v0.99pb5
#
DISCID=620cd309
DTITLE=Mozart, Wolfgang Amadeus - S³awni kompozytorzy 01 - Jupitersymp
DTITLE=honie - Don Giovanni - Die Zauberfloze [Radiowa Ork. Symf. w Krak
DTITLE=owie - dir. Wojciech Czepiel]
DYEAR=1998
DGENRE=Classical
TTITLE0=Jupitersymphonie C-dur KV 551 - Allegro vivace
TTITLE1=Jupitersymphonie C-dur KV 551 - Andante cantabile
TTITLE2=Jupitersymphonie C-dur KV 551 - Menuett, Allegretto
TTITLE3=Jupitersymphonie C-dur KV 551 - Finale, Molto allegro
TTITLE4=Don Giovanni - Il mio tesoro intanto - aria
TTITLE5=Don Giovanni - Della sua pace - aria
TTITLE6=Die Zauberflote - Dies Bildnis ist bezaubernd schon - aria
TTITLE7=Die Zauberflote - Die Entfurung aus den Serail - uwertura
TTITLE8=Die Zauberflote - Le nozze di Figaro - uwertura
EXTD=
EXTT0=
EXTT1=
EXTT2=
EXTT3=
EXTT4=
EXTT5=
EXTT6=
EXTT7=
EXTT8=
PLAYORDER=
